<svg width="164" height="164" viewBox="0 0 164 164" fill="none" xmlns="http://www.w3.org/2000/svg">
<path id="Vector" d="M0 82C0 127.215 36.7705 164 82 164C127.229 164 164 127.215 164 82C164 60.7375 155.886 40.5828 141.198 25.2474C139.875 23.8807 137.717 23.8375 136.35 25.1611C134.998 26.4989 134.955 28.6856 136.264 30.0523C146.938 41.187 153.8 55.1126 156.188 70.074L145.212 71.5126C143.356 71.7572 142.033 73.4547 142.234 75.3393C143.96 90.7323 139.76 106.053 130.423 118.44C129.618 119.504 128.769 120.554 127.906 121.561C126.668 123 126.827 125.187 128.251 126.438C128.898 126.999 129.689 127.273 130.495 127.273C131.459 127.273 132.408 126.87 133.085 126.079C134.063 124.956 134.998 123.777 135.89 122.612C145.615 109.707 150.333 93.9691 149.341 77.9432L156.965 76.9505C157.08 78.6337 157.152 80.3025 157.152 82C157.152 123.417 123.446 157.095 82 157.095C40.554 157.095 6.84772 123.417 6.84772 82C6.84772 78.7056 7.09228 75.4832 7.49509 72.3039L15.1772 73.5267C12.4295 93.2642 18.6154 112.887 32.4691 127.819C33.1453 128.553 34.0516 128.927 34.9723 128.927C35.8067 128.927 36.6411 128.611 37.3172 127.992C38.7126 126.697 38.7846 124.496 37.4898 123.101C24.3554 108.916 18.8888 90.0274 22.514 71.3112C22.6867 70.3761 22.4996 69.4411 21.953 68.6642C21.4207 67.8874 20.6007 67.3839 19.68 67.2256L8.70351 65.4705C16.2705 32.0088 46.2365 6.90526 82 6.90526C96.0839 6.90526 109.707 10.7751 121.576 18.1551L117.404 24.6144C88.1284 6.53123 49.2288 13.4221 28.1389 41.446C25.7077 44.6684 23.5642 48.1211 21.7516 51.7032C20.9028 53.4007 21.5646 55.4867 23.2477 56.3498C24.9309 57.213 27.0025 56.5368 27.8512 54.8393C29.4625 51.6312 31.4046 48.5239 33.5912 45.6323C48.567 25.7365 73.5267 17.7091 96.3284 23.2189L93.1491 33.6919C92.8902 34.5695 92.9765 35.5189 93.4081 36.3389C93.8397 37.1446 94.5733 37.7632 95.4365 38.0221C110.053 42.4818 121.058 53.5158 125.676 67.3551L118.181 69.3547C112.93 54.4221 98.7021 43.6902 82 43.6902C60.867 43.6902 43.6614 60.9102 43.6614 82.0575C43.6614 103.205 60.867 120.425 82 120.425C90.2863 120.425 98.1554 117.835 104.802 112.915C106.327 111.793 106.658 109.621 105.535 108.082C104.428 106.542 102.27 106.212 100.731 107.348C95.2926 111.376 88.8046 113.52 82 113.52C64.6361 113.52 50.5091 99.407 50.5091 82.0719C50.5091 64.7368 64.6361 50.6242 82 50.6242C99.3639 50.6242 113.491 64.7368 113.491 82.0719C113.491 86.0137 112.772 89.8691 111.347 93.5232C110.657 95.2926 111.52 97.3067 113.275 98.0116C115.045 98.7165 117.03 97.8389 117.735 96.0695C119.475 91.6098 120.367 86.92 120.367 82.0719C120.367 80.0435 120.195 78.0439 119.893 76.073L127.359 74.0877C127.805 76.6772 128.049 79.353 128.049 82.0719C128.049 107.449 107.406 128.078 82 128.078C56.5944 128.078 35.9505 107.449 35.9505 82.0719C35.9505 56.6951 54.9832 37.5761 79.2667 36.1519C81.1656 36.0512 82.6042 34.3968 82.5035 32.5123C82.4028 30.5989 80.7628 29.146 78.8783 29.2754C50.9551 30.9011 29.1172 54.1056 29.1172 82.1007C29.1172 110.096 52.8396 135.012 82.0144 135.012C90.5165 135.012 98.5726 132.984 105.694 129.402L110.009 135.919C90.3007 146.507 66.7509 145.126 47.7182 132.02C46.1502 130.955 44.0354 131.358 42.9565 132.926C41.8775 134.509 42.2947 136.667 43.8628 137.731C55.6161 145.816 68.9519 149.902 82.2158 149.887C94.1274 149.887 106.01 146.607 116.713 140.033C117.519 139.544 118.066 138.753 118.281 137.818C118.497 136.911 118.296 135.947 117.792 135.156L111.693 125.892C125.733 116.368 134.969 100.27 134.969 82.0719C134.969 59.7737 121.36 40.2951 100.774 32.5554L103.004 25.2761C108.441 27.2758 113.707 30.0811 118.555 33.7495C127.345 40.3526 134.135 49.2144 138.249 59.3421C138.781 60.68 140.076 61.5 141.428 61.5C141.86 61.5 142.292 61.4137 142.709 61.2411C144.464 60.5218 145.298 58.5077 144.593 56.7382C140.105 45.6467 132.682 35.9218 123.144 28.6137L129.287 19.1046C130.308 17.5221 129.876 15.4218 128.352 14.3572C114.599 4.94877 98.6014 0 82 0C36.7705 0 0 36.7849 0 82Z" fill="url(#paint0_linear_14663_54202)"/>
<defs>
<linearGradient id="paint0_linear_14663_54202" x1="0" y1="82" x2="164" y2="82" gradientUnits="userSpaceOnUse">
<stop stop-color="#EF7967"/>
<stop offset="1" stop-color="#FBBF56"/>
</linearGradient>
</defs>
</svg>
